# MagicaVoxel @ Ephtracy

# group
o 

# material
mtllib Truck Wheel.mtl
usemtl palette

# normals
vn -1 0 0
vn 1 0 0
vn 0 0 1
vn 0 0 -1
vn 0 -1 0
vn 0 1 0

# texcoords
vt 0.771484 0.5
vt 0.775391 0.5
vt 0.919922 0.5
vt 0.994141 0.5

# verts
v -0.15 -0.5 0.2
v -0.15 -0.5 -0.2
v -0.15 -0.4 0.4
v -0.15 -0.4 0.2
v -0.15 -0.4 -0.2
v -0.15 -0.4 -0.4
v -0.15 -0.3 0.3
v -0.15 -0.3 0.2
v -0.15 -0.3 -0.2
v -0.15 -0.3 -0.3
v -0.15 -0.2 0.5
v -0.15 -0.2 0.4
v -0.15 -0.2 0.3
v -0.15 -0.2 0.2
v -0.15 -0.2 0.1
v -0.15 -0.2 -0.1
v -0.15 -0.2 -0.2
v -0.15 -0.2 -0.3
v -0.15 -0.2 -0.4
v -0.15 -0.2 -0.5
v -0.15 -0.1 0.2
v -0.15 -0.1 0.1
v -0.15 -0.1 -0.1
v -0.15 -0.1 -0.2
v -0.15 0.1 0.2
v -0.15 0.1 0.1
v -0.15 0.1 -0.1
v -0.15 0.1 -0.2
v -0.15 0.2 0.5
v -0.15 0.2 0.4
v -0.15 0.2 0.3
v -0.15 0.2 0.2
v -0.15 0.2 0.1
v -0.15 0.2 -0.1
v -0.15 0.2 -0.2
v -0.15 0.2 -0.3
v -0.15 0.2 -0.4
v -0.15 0.2 -0.5
v -0.15 0.3 0.3
v -0.15 0.3 0.2
v -0.15 0.3 -0.2
v -0.15 0.3 -0.3
v -0.15 0.4 0.4
v -0.15 0.4 0.2
v -0.15 0.4 -0.2
v -0.15 0.4 -0.4
v -0.15 0.5 0.2
v -0.15 0.5 -0.2
v 0.15 -0.5 0.2
v 0.15 -0.5 -0.2
v 0.15 -0.4 0.4
v 0.15 -0.4 0.2
v 0.15 -0.4 -0.2
v 0.15 -0.4 -0.4
v 0.15 -0.2 0.5
v 0.15 -0.2 0.4
v 0.15 -0.2 0.2
v 0.15 -0.2 0.1
v 0.15 -0.2 -0.1
v 0.15 -0.2 -0.2
v 0.15 -0.2 -0.4
v 0.15 -0.2 -0.5
v 0.15 -0.1 0.2
v 0.15 -0.1 0.1
v 0.15 -0.1 -0.1
v 0.15 -0.1 -0.2
v 0.15 0.1 0.2
v 0.15 0.1 0.1
v 0.15 0.1 -0.1
v 0.15 0.1 -0.2
v 0.15 0.2 0.5
v 0.15 0.2 0.4
v 0.15 0.2 0.2
v 0.15 0.2 0.1
v 0.15 0.2 -0.1
v 0.15 0.2 -0.2
v 0.15 0.2 -0.4
v 0.15 0.2 -0.5
v 0.15 0.4 0.4
v 0.15 0.4 0.2
v 0.15 0.4 -0.2
v 0.15 0.4 -0.4
v 0.15 0.5 0.2
v 0.15 0.5 -0.2
v -0.15 -0.2 0.5
v -0.15 0.2 0.5
v 0.15 -0.2 0.5
v 0.15 0.2 0.5
v -0.15 -0.4 0.4
v -0.15 -0.2 0.4
v -0.15 0.2 0.4
v -0.15 0.4 0.4
v 0.15 -0.4 0.4
v 0.15 -0.2 0.4
v 0.15 0.2 0.4
v 0.15 0.4 0.4
v -0.15 -0.5 0.2
v -0.15 -0.4 0.2
v -0.15 0.4 0.2
v -0.15 0.5 0.2
v 0.15 -0.5 0.2
v 0.15 -0.4 0.2
v 0.15 0.4 0.2
v 0.15 0.5 0.2
v -0.15 -0.2 0.1
v -0.15 -0.1 0.1
v -0.15 0.1 0.1
v -0.15 0.2 0.1
v -0.05 -0.2 0.1
v -0.05 -0.1 0.1
v -0.05 0.1 0.1
v -0.05 0.2 0.1
v 0.15 -0.2 0.1
v 0.15 -0.1 0.1
v 0.15 0.1 0.1
v 0.15 0.2 0.1
v -0.15 -0.2 -0.2
v -0.15 -0.1 -0.2
v -0.15 0.1 -0.2
v -0.15 0.2 -0.2
v -0.05 -0.2 -0.2
v -0.05 -0.1 -0.2
v -0.05 0.1 -0.2
v -0.05 0.2 -0.2
v 0.15 -0.2 -0.2
v 0.15 -0.1 -0.2
v 0.15 0.1 -0.2
v 0.15 0.2 -0.2
v -0.15 -0.2 0.2
v -0.15 -0.1 0.2
v -0.15 0.1 0.2
v -0.15 0.2 0.2
v -0.05 -0.2 0.2
v -0.05 -0.1 0.2
v -0.05 0.1 0.2
v -0.05 0.2 0.2
v 0.15 -0.2 0.2
v 0.15 -0.1 0.2
v 0.15 0.1 0.2
v 0.15 0.2 0.2
v -0.15 -0.2 -0.1
v -0.15 -0.1 -0.1
v -0.15 0.1 -0.1
v -0.15 0.2 -0.1
v -0.05 -0.2 -0.1
v -0.05 -0.1 -0.1
v -0.05 0.1 -0.1
v -0.05 0.2 -0.1
v 0.15 -0.2 -0.1
v 0.15 -0.1 -0.1
v 0.15 0.1 -0.1
v 0.15 0.2 -0.1
v -0.15 -0.5 -0.2
v -0.15 -0.4 -0.2
v -0.15 0.4 -0.2
v -0.15 0.5 -0.2
v 0.15 -0.5 -0.2
v 0.15 -0.4 -0.2
v 0.15 0.4 -0.2
v 0.15 0.5 -0.2
v -0.15 -0.4 -0.4
v -0.15 -0.2 -0.4
v -0.15 0.2 -0.4
v -0.15 0.4 -0.4
v 0.15 -0.4 -0.4
v 0.15 -0.2 -0.4
v 0.15 0.2 -0.4
v 0.15 0.4 -0.4
v -0.15 -0.2 -0.5
v -0.15 0.2 -0.5
v 0.15 -0.2 -0.5
v 0.15 0.2 -0.5
v -0.15 -0.5 0.2
v 0.15 -0.5 0.2
v -0.15 -0.5 -0.2
v 0.15 -0.5 -0.2
v -0.15 -0.4 0.4
v 0.15 -0.4 0.4
v -0.15 -0.4 0.2
v 0.15 -0.4 0.2
v -0.15 -0.4 -0.2
v 0.15 -0.4 -0.2
v -0.15 -0.4 -0.4
v 0.15 -0.4 -0.4
v -0.15 -0.2 0.5
v 0.15 -0.2 0.5
v -0.15 -0.2 0.4
v 0.15 -0.2 0.4
v -0.15 -0.2 -0.4
v 0.15 -0.2 -0.4
v -0.15 -0.2 -0.5
v 0.15 -0.2 -0.5
v -0.15 -0.1 0.2
v -0.05 -0.1 0.2
v 0.15 -0.1 0.2
v -0.15 -0.1 0.1
v -0.05 -0.1 0.1
v 0.15 -0.1 0.1
v -0.15 -0.1 -0.1
v -0.05 -0.1 -0.1
v 0.15 -0.1 -0.1
v -0.15 -0.1 -0.2
v -0.05 -0.1 -0.2
v 0.15 -0.1 -0.2
v -0.15 0.2 0.2
v -0.05 0.2 0.2
v 0.15 0.2 0.2
v -0.15 0.2 0.1
v -0.05 0.2 0.1
v 0.15 0.2 0.1
v -0.15 0.2 -0.1
v -0.05 0.2 -0.1
v 0.15 0.2 -0.1
v -0.15 0.2 -0.2
v -0.05 0.2 -0.2
v 0.15 0.2 -0.2
v -0.15 -0.2 0.2
v -0.05 -0.2 0.2
v 0.15 -0.2 0.2
v -0.15 -0.2 0.1
v -0.05 -0.2 0.1
v 0.15 -0.2 0.1
v -0.15 -0.2 -0.1
v -0.05 -0.2 -0.1
v 0.15 -0.2 -0.1
v -0.15 -0.2 -0.2
v -0.05 -0.2 -0.2
v 0.15 -0.2 -0.2
v -0.15 0.1 0.2
v -0.05 0.1 0.2
v 0.15 0.1 0.2
v -0.15 0.1 0.1
v -0.05 0.1 0.1
v 0.15 0.1 0.1
v -0.15 0.1 -0.1
v -0.05 0.1 -0.1
v 0.15 0.1 -0.1
v -0.15 0.1 -0.2
v -0.05 0.1 -0.2
v 0.15 0.1 -0.2
v -0.15 0.2 0.5
v 0.15 0.2 0.5
v -0.15 0.2 0.4
v 0.15 0.2 0.4
v -0.15 0.2 -0.4
v 0.15 0.2 -0.4
v -0.15 0.2 -0.5
v 0.15 0.2 -0.5
v -0.15 0.4 0.4
v 0.15 0.4 0.4
v -0.15 0.4 0.2
v 0.15 0.4 0.2
v -0.15 0.4 -0.2
v 0.15 0.4 -0.2
v -0.15 0.4 -0.4
v 0.15 0.4 -0.4
v -0.15 0.5 0.2
v 0.15 0.5 0.2
v -0.15 0.5 -0.2
v 0.15 0.5 -0.2

# faces
f 4/4/1 2/4/1 1/4/1
f 5/4/1 2/4/1 4/4/1
f 7/4/1 4/4/1 3/4/1
f 8/3/1 5/3/1 4/3/1
f 8/4/1 4/4/1 7/4/1
f 9/4/1 6/4/1 5/4/1
f 9/3/1 5/3/1 8/3/1
f 10/4/1 6/4/1 9/4/1
f 12/4/1 7/4/1 3/4/1
f 13/3/1 8/3/1 7/3/1
f 13/4/1 7/4/1 12/4/1
f 14/1/1 9/1/1 8/1/1
f 14/3/1 8/3/1 13/3/1
f 15/1/1 9/1/1 14/1/1
f 16/1/1 9/1/1 15/1/1
f 17/3/1 10/3/1 9/3/1
f 17/1/1 9/1/1 16/1/1
f 18/4/1 6/4/1 10/4/1
f 18/3/1 10/3/1 17/3/1
f 19/4/1 6/4/1 18/4/1
f 21/1/1 14/1/1 13/1/1
f 22/2/1 16/2/1 15/2/1
f 23/2/1 16/2/1 22/2/1
f 24/1/1 18/1/1 17/1/1
f 25/1/1 21/1/1 13/1/1
f 25/2/1 22/2/1 21/2/1
f 26/3/1 23/3/1 22/3/1
f 26/2/1 22/2/1 25/2/1
f 27/2/1 24/2/1 23/2/1
f 27/3/1 23/3/1 26/3/1
f 28/1/1 18/1/1 24/1/1
f 28/2/1 24/2/1 27/2/1
f 29/4/1 12/4/1 11/4/1
f 30/3/1 13/3/1 12/3/1
f 30/4/1 12/4/1 29/4/1
f 31/1/1 25/1/1 13/1/1
f 31/3/1 13/3/1 30/3/1
f 32/1/1 25/1/1 31/1/1
f 33/2/1 27/2/1 26/2/1
f 34/2/1 27/2/1 33/2/1
f 35/1/1 18/1/1 28/1/1
f 36/3/1 19/3/1 18/3/1
f 36/1/1 18/1/1 35/1/1
f 37/4/1 20/4/1 19/4/1
f 37/3/1 19/3/1 36/3/1
f 38/4/1 20/4/1 37/4/1
f 39/3/1 32/3/1 31/3/1
f 39/4/1 31/4/1 30/4/1
f 40/1/1 34/1/1 33/1/1
f 40/3/1 32/3/1 39/3/1
f 40/1/1 35/1/1 34/1/1
f 40/1/1 33/1/1 32/1/1
f 41/3/1 36/3/1 35/3/1
f 41/1/1 35/1/1 40/1/1
f 42/4/1 37/4/1 36/4/1
f 42/3/1 36/3/1 41/3/1
f 43/4/1 39/4/1 30/4/1
f 43/4/1 40/4/1 39/4/1
f 44/3/1 41/3/1 40/3/1
f 44/4/1 40/4/1 43/4/1
f 45/4/1 42/4/1 41/4/1
f 45/3/1 41/3/1 44/3/1
f 46/4/1 37/4/1 42/4/1
f 46/4/1 42/4/1 45/4/1
f 47/4/1 45/4/1 44/4/1
f 48/4/1 45/4/1 47/4/1
f 49/4/2 50/4/2 52/4/2
f 52/4/2 50/4/2 53/4/2
f 51/4/2 52/4/2 56/4/2
f 53/4/2 54/4/2 56/4/2
f 52/4/2 53/4/2 56/4/2
f 56/4/2 54/4/2 57/4/2
f 57/4/2 54/4/2 58/4/2
f 58/4/2 54/4/2 59/4/2
f 59/4/2 54/4/2 60/4/2
f 60/4/2 54/4/2 61/4/2
f 55/4/2 56/4/2 63/4/2
f 56/4/2 57/4/2 63/4/2
f 58/4/2 59/4/2 64/4/2
f 64/4/2 59/4/2 65/4/2
f 61/4/2 62/4/2 66/4/2
f 60/4/2 61/4/2 66/4/2
f 64/4/2 65/4/2 67/4/2
f 65/4/2 66/4/2 67/4/2
f 63/4/2 64/4/2 67/4/2
f 55/4/2 63/4/2 67/4/2
f 67/4/2 66/4/2 68/4/2
f 68/4/2 66/4/2 69/4/2
f 66/4/2 62/4/2 70/4/2
f 69/4/2 66/4/2 70/4/2
f 55/4/2 67/4/2 71/4/2
f 71/4/2 67/4/2 72/4/2
f 72/4/2 67/4/2 73/4/2
f 68/4/2 69/4/2 74/4/2
f 74/4/2 69/4/2 75/4/2
f 70/4/2 62/4/2 76/4/2
f 76/4/2 62/4/2 77/4/2
f 77/4/2 62/4/2 78/4/2
f 72/4/2 73/4/2 79/4/2
f 74/4/2 75/4/2 79/4/2
f 76/4/2 77/4/2 79/4/2
f 75/4/2 76/4/2 79/4/2
f 73/4/2 74/4/2 79/4/2
f 79/4/2 77/4/2 80/4/2
f 80/4/2 77/4/2 81/4/2
f 81/4/2 77/4/2 82/4/2
f 80/4/2 81/4/2 83/4/2
f 83/4/2 81/4/2 84/4/2
f 87/4/3 86/4/3 85/4/3
f 88/4/3 86/4/3 87/4/3
f 93/4/3 90/4/3 89/4/3
f 94/4/3 90/4/3 93/4/3
f 95/4/3 92/4/3 91/4/3
f 96/4/3 92/4/3 95/4/3
f 101/4/3 98/4/3 97/4/3
f 102/4/3 98/4/3 101/4/3
f 103/4/3 100/4/3 99/4/3
f 104/4/3 100/4/3 103/4/3
f 109/2/3 106/2/3 105/2/3
f 110/2/3 106/2/3 109/2/3
f 111/2/3 108/2/3 107/2/3
f 112/2/3 108/2/3 111/2/3
f 113/4/3 110/4/3 109/4/3
f 114/4/3 110/4/3 113/4/3
f 115/4/3 112/4/3 111/4/3
f 116/4/3 112/4/3 115/4/3
f 121/1/3 118/1/3 117/1/3
f 122/1/3 118/1/3 121/1/3
f 123/1/3 120/1/3 119/1/3
f 124/1/3 120/1/3 123/1/3
f 125/4/3 122/4/3 121/4/3
f 126/4/3 122/4/3 125/4/3
f 127/4/3 124/4/3 123/4/3
f 128/4/3 124/4/3 127/4/3
f 129/1/4 130/1/4 133/1/4
f 133/1/4 130/1/4 134/1/4
f 131/1/4 132/1/4 135/1/4
f 135/1/4 132/1/4 136/1/4
f 133/4/4 134/4/4 137/4/4
f 137/4/4 134/4/4 138/4/4
f 135/4/4 136/4/4 139/4/4
f 139/4/4 136/4/4 140/4/4
f 141/2/4 142/2/4 145/2/4
f 145/2/4 142/2/4 146/2/4
f 143/2/4 144/2/4 147/2/4
f 147/2/4 144/2/4 148/2/4
f 145/4/4 146/4/4 149/4/4
f 149/4/4 146/4/4 150/4/4
f 147/4/4 148/4/4 151/4/4
f 151/4/4 148/4/4 152/4/4
f 153/4/4 154/4/4 157/4/4
f 157/4/4 154/4/4 158/4/4
f 155/4/4 156/4/4 159/4/4
f 159/4/4 156/4/4 160/4/4
f 161/4/4 162/4/4 165/4/4
f 165/4/4 162/4/4 166/4/4
f 163/4/4 164/4/4 167/4/4
f 167/4/4 164/4/4 168/4/4
f 169/4/4 170/4/4 171/4/4
f 171/4/4 170/4/4 172/4/4
f 175/4/5 174/4/5 173/4/5
f 176/4/5 174/4/5 175/4/5
f 179/4/5 178/4/5 177/4/5
f 180/4/5 178/4/5 179/4/5
f 183/4/5 182/4/5 181/4/5
f 184/4/5 182/4/5 183/4/5
f 187/4/5 186/4/5 185/4/5
f 188/4/5 186/4/5 187/4/5
f 191/4/5 190/4/5 189/4/5
f 192/4/5 190/4/5 191/4/5
f 196/2/5 194/2/5 193/2/5
f 197/4/5 195/4/5 194/4/5
f 197/2/5 194/2/5 196/2/5
f 198/4/5 195/4/5 197/4/5
f 202/2/5 200/2/5 199/2/5
f 203/4/5 201/4/5 200/4/5
f 203/2/5 200/2/5 202/2/5
f 204/4/5 201/4/5 203/4/5
f 208/1/5 206/1/5 205/1/5
f 209/4/5 207/4/5 206/4/5
f 209/1/5 206/1/5 208/1/5
f 210/4/5 207/4/5 209/4/5
f 214/1/5 212/1/5 211/1/5
f 215/4/5 213/4/5 212/4/5
f 215/1/5 212/1/5 214/1/5
f 216/4/5 213/4/5 215/4/5
f 217/1/6 218/1/6 220/1/6
f 218/4/6 219/4/6 221/4/6
f 220/1/6 218/1/6 221/1/6
f 221/4/6 219/4/6 222/4/6
f 223/1/6 224/1/6 226/1/6
f 224/4/6 225/4/6 227/4/6
f 226/1/6 224/1/6 227/1/6
f 227/4/6 225/4/6 228/4/6
f 229/2/6 230/2/6 232/2/6
f 230/4/6 231/4/6 233/4/6
f 232/2/6 230/2/6 233/2/6
f 233/4/6 231/4/6 234/4/6
f 235/2/6 236/2/6 238/2/6
f 236/4/6 237/4/6 239/4/6
f 238/2/6 236/2/6 239/2/6
f 239/4/6 237/4/6 240/4/6
f 241/4/6 242/4/6 243/4/6
f 243/4/6 242/4/6 244/4/6
f 245/4/6 246/4/6 247/4/6
f 247/4/6 246/4/6 248/4/6
f 249/4/6 250/4/6 251/4/6
f 251/4/6 250/4/6 252/4/6
f 253/4/6 254/4/6 255/4/6
f 255/4/6 254/4/6 256/4/6
f 257/4/6 258/4/6 259/4/6
f 259/4/6 258/4/6 260/4/6
